# xmcd
#
# Track frame offsets:
#	150
#	25042
#	40591
#	77113
#	100290
#	138900
#	165051
#	194899
#	211811
#	235427
#	248899
#	264334
#	285332
#
# Disc length: 4195
#
# Revision: 2
# Processed by: cddbd v1.5.1PL0 Copyright (c) Steve Scherf et al.
# Submitted via: CDex 1.50
# Normalized: r1:TDELIM( - )
#
DISCID=a610610d
DTITLE=Brian Wittman of Hawaii's Cool Steel Band - Jungle Jazz - Maui Xaphoon Music
DYEAR=2004
DGENRE=Jazz
TTITLE0=Mellow Time - Wittman
TTITLE1=Summertime - Gershwin
TTITLE2=Casa Forte - Lobo
TTITLE3=I Can See Clearly - Nash
TTITLE4=All Blues - Davis
TTITLE5=Misty - Garner
TTITLE6=Manha De Carnaval - Bonfa
TTITLE7=Yesterday - Lennon,McCartney
TTITLE8=Lean On Me - Withers
TTITLE9=Hawaiian War Chant - traditional
TTITLE10=Ekolu Mea Nui - traditional
TTITLE11=Europa - Santana,Coster
TTITLE12=Maiaku - Wittman
EXTD=YEAR: 2004
EXTT0=
EXTT1=
EXTT2=
EXTT3=
EXTT4=
EXTT5=
EXTT6=
EXTT7=
EXTT8=
EXTT9=
EXTT10=
EXTT11=
EXTT12=
PLAYORDER=
